<svg xmlns="http://www.w3.org/2000/svg" xmlns:xlink="http://www.w3.org/1999/xlink" version="1.1" id="Your_Icon" x="0px" y="0px" width="100px" height="100px" viewBox="0 0 100 100" enable-background="new 0 0 100 100" xml:space="preserve">
<g>
	<path d="M46.492,72.629c0-0.929,0.708-1.682,1.594-1.682h4.027c0.875,0,1.586,0.753,1.586,1.682v4.233   c0,0.929-0.711,1.67-1.586,1.67h-4.027c-0.886,0-1.594-0.741-1.594-1.67V72.629z"/>
	<path d="M35.317,72.629c0-0.929,0.712-1.682,1.578-1.682h4.04c0.879,0,1.584,0.753,1.584,1.682v4.233   c0,0.929-0.705,1.67-1.584,1.67h-4.04c-0.866,0-1.578-0.741-1.578-1.67V72.629z"/>
	<path d="M57.279,72.629c0-0.929,0.703-1.682,1.576-1.682h4.043c0.863,0,1.576,0.753,1.576,1.682v4.233   c0,0.929-0.713,1.67-1.576,1.67h-4.043c-0.873,0-1.576-0.741-1.576-1.67V72.629z"/>
	<path d="M46.492,61.579c0-0.916,0.708-1.669,1.594-1.669h4.027c0.875,0,1.586,0.753,1.586,1.669v4.252   c0,0.93-0.711,1.677-1.586,1.677h-4.027c-0.886,0-1.594-0.747-1.594-1.677V61.579z"/>
	<path d="M35.317,61.579c0-0.916,0.712-1.669,1.578-1.669h4.04c0.879,0,1.584,0.753,1.584,1.669v4.252   c0,0.93-0.705,1.677-1.584,1.677h-4.04c-0.866,0-1.578-0.747-1.578-1.677V61.579z"/>
	<path d="M57.279,61.579c0-0.916,0.703-1.669,1.576-1.669h4.043c0.863,0,1.576,0.753,1.576,1.669v4.252   c0,0.93-0.713,1.677-1.576,1.677h-4.043c-0.873,0-1.576-0.747-1.576-1.677V61.579z"/>
	<path d="M46.492,83.919c0-0.929,0.708-1.676,1.594-1.676h4.027c0.875,0,1.586,0.747,1.586,1.676v4.239   c0,0.927-0.711,1.68-1.586,1.68h-4.027c-0.886,0-1.594-0.753-1.594-1.68V83.919z"/>
	<path d="M35.317,83.919c0-0.929,0.712-1.676,1.578-1.676h4.04c0.879,0,1.584,0.747,1.584,1.676v4.239   c0,0.927-0.705,1.68-1.584,1.68h-4.04c-0.866,0-1.578-0.753-1.578-1.68V83.919z"/>
	<path d="M57.279,83.919c0-0.929,0.703-1.676,1.576-1.676h4.043c0.863,0,1.576,0.747,1.576,1.676v4.239   c0,0.927-0.713,1.68-1.576,1.68h-4.043c-0.873,0-1.576-0.753-1.576-1.68V83.919z"/>
</g>
<path d="M63.071,19.203h1.751c2.641,0,4.77,2.24,4.77,5.016v66.545c0,2.77-2.129,5.021-4.77,5.021h-29.86  c-2.628,0-4.763-2.251-4.763-5.021V24.219c0-2.775,2.135-5.016,4.763-5.016h1.716c0.557,1.729,1.333,3.534,2.229,5.326h-1.207  c-1.316,0-2.379,1.125-2.379,2.518v25.677c0,1.384,1.062,2.511,2.379,2.511H62.09c1.311,0,2.381-1.127,2.381-2.511V27.047  c0-1.393-1.07-2.518-2.381-2.518h-1.24C61.746,22.733,62.521,20.927,63.071,19.203z M63.967,14.986  c0.006-0.112,0.014-0.225,0.018-0.338c0.008-0.177,0.014-0.353,0.014-0.525C63.998,6.336,57.662,0,49.875,0  c-7.788,0-14.123,6.336-14.123,14.123c0,0.172,0.004,0.346,0.012,0.51c0.004,0.118,0.012,0.236,0.02,0.354h-0.821  c-4.95,0-8.978,4.143-8.978,9.232v66.545c0,5.091,4.027,9.236,8.978,9.236h29.86c4.957,0,8.986-4.146,8.986-9.236V24.219  c0-5.09-4.029-9.232-8.986-9.232H63.967z M39.278,14.493c-0.005-0.124-0.009-0.249-0.009-0.37c0-5.848,4.758-10.605,10.605-10.605  S60.48,8.275,60.48,14.123c0,0.121-0.004,0.242-0.01,0.383c-0.006,0.161-0.017,0.321-0.029,0.48  c-0.075,0.932-0.271,1.85-0.604,2.784c-0.143,0.469-0.309,0.948-0.488,1.433c-0.645,1.73-1.509,3.544-2.473,5.326  c-2.361,4.365-5.308,8.538-7.002,10.828c-1.693-2.285-4.631-6.451-6.997-10.828c-0.961-1.777-1.825-3.59-2.475-5.326  c-0.191-0.512-0.367-1.018-0.518-1.513c-0.31-0.866-0.502-1.771-0.577-2.704C39.295,14.823,39.284,14.658,39.278,14.493z"/>
<circle cx="49.875" cy="14.123" r="6.055"/>
</svg>